<svg height="15" viewBox="0 0 16 15" width="16" xmlns="http://www.w3.org/2000/svg" xmlns:xlink="http://www.w3.org/1999/xlink"><filter id="a" height="200%" width="200%" x="-50%" y="-50%"><feOffset dx="0" dy="-2" in="SourceAlpha" result="shadowOffsetOuter1"/><feGaussianBlur in="shadowOffsetOuter1" result="shadowBlurOuter1" stdDeviation="4"/><feColorMatrix in="shadowBlurOuter1" result="shadowMatrixOuter1" type="matrix" values="0 0 0 0 0   0 0 0 0 0   0 0 0 0 0  0 0 0 0.1 0"/><feMerge><feMergeNode in="shadowMatrixOuter1"/><feMergeNode in="SourceGraphic"/></feMerge></filter><g fill="#f45b56" fill-rule="evenodd" filter="url(#a)" transform="translate(-79 -168)"><path d="m3.68055565 11.9135476c.8317225.3178883 1.01770657 1.2853225.55071888 1.9059097-.27552383.3683746-.80684426.6245212-1.37071463.6194944-1.20588256-.0139875-1.99990411-.873674-2.0703742-1.8800109-.06575748-.8927976.47476899-1.7287709 1.30342281-2.09343 2.43006761-1.07026433 5.14442671 1.0487366 5.81361865 3.4551375-.40079183-.6122821-1.46869328-1.8270113-2.74932017-2.2987625-.57318601-.2114521-1.33180812-.2874-1.90225424 0-.37887267.1937491-.59762589.5479176-.56759664.9008841.03364591.3737292.36966663.6465952.72585297.6033213.35432321-.0442574.61231171-.3725271.57176127-.7214503-.02531663-.2083923-.15146139-.4057476-.3051147-.4910933zm8.62288775 0c-.1549685.0853457-.2799077.282701-.3047859.4910933-.0404409.3489232.2137118.6771929.572638.7214503.3550904.0432739.6919879-.2295921.7239898-.6033213.0327692-.3529665-.1874088-.707135-.5662815-.9008841-.5721996-.2874-1.3303833-.2114521-1.902035 0-1.2806269.4717512-2.35072026 1.6864804-2.74811462 2.2987625.66897274-2.4064009 3.38124952-4.52540183 5.80978282-3.4551375.8309553.3646591 1.3697282 1.2006324 1.3059435 2.09343-.0710181 1.0063369-.8631765 1.8660234-2.0716894 1.8800109-.5632128.0050268-1.0935468-.2511198-1.3718106-.6194944-.4650149-.6205872-.2800172-1.5880214.5523629-1.9058005zm-4.30295022-6.40508496c-2.24079566 0-4.05668842-1.16697494-4.05668842-2.60779941 0-1.12304536 1.10527361-2.07900535 2.65550616-2.44956551-1.8332089.37504054-3.16129077 1.46683252-3.16129077 2.75619831 0 1.48202211 1.72931208 2.54288855 3.3767561 2.78603109.80695386.12075169.98153996.1426072 1.18571693.36597051.20362899-.22336331.37722873-.24521882 1.18330582-.36597051 1.6494167-.24314254 3.3770849-1.30400898 3.3770849-2.78603109 0-1.28936579-1.3265475-2.38115777-3.1606332-2.75619831 1.5513285.37056016 2.6562733 1.32652015 2.6562733 2.44956551 0 1.44082447-1.8162215 2.60779941-4.05603082 2.60779941zm0 1.66320428c-.41668322-.38411058-.96751169-.43088137-1.45050037-.53480432-2.25526231-.48093049-3.73644951-1.66834033-3.73644951-3.17025094 0-.60332135.25645417-1.17189243.70327623-1.6597074.73878527-.81335279 2.01064449-1.40640205 3.51101095-1.58878627-2.77266407.2939566-4.8838079 1.82143817-4.8838079 3.6629834 0 1.64156733 1.5721517 2.85039557 4.01405566 3.52474732 1.05639388.29351949 1.56667192.49163968 1.84241494.95628782.27355111-.46464814.78459631-.66276833 1.84197656-.95628782 2.43861606-.67435175 4.01043896-1.88317999 4.01043896-3.52474732 0-1.84154523-2.1086231-3.3690268-4.88084878-3.6629834 1.50003768.18238422 2.76806108.77543348 3.50958618 1.58878627.4473701.48781497.7023995 1.05638605.7022899 1.6597074 0 1.50191061-1.4800912 2.68932045-3.73524396 3.17025094-.48265989.10392295-1.03195402.15069374-1.44819886.53480432zm0 2.51808254c-.43158825-.86558746-1.56294566-1.322914-2.51237405-1.63446429-.27618141-.08993542-.39750396-.12818256-.72957922-.25472596-1.92055675-.72451014-3.21301998-2.0758363-3.21488311-3.62331566 0-2.17396754 2.53067655-3.95825134 5.78117829-4.17724355-4.10140351.21811799-7.32483509 2.39645663-7.32483509 5.05157321 0 1.77543232 1.25520066 3.2595307 3.6244426 4.24433997.95282586.395694 3.72987376 1.21319932 4.37605058 4.13746652.61527081-2.9158528 3.42300552-3.74177252 4.37659852-4.13746652 2.3693516-.98480927 3.6229083-2.46890765 3.6229083-4.24433997 0-2.65511658-3.2224452-4.8335645-7.3247255-5.05157321 3.2492962.21899221 5.7823838 2.00327601 5.7823838 4.17724355-.0039454 1.54747936-1.2945455 2.89880552-3.2149927 3.62331566-.3354727.1265434-.4546033.16479054-.7313327.25472596-.94888042.31155029-2.07914187.76887683-2.51083972 1.63446429zm-1.52414875-7.26783116c0-.85050716.68190505-1.54004849 1.52108007-1.54004849.84268208 0 1.52305279.68954133 1.52305279 1.54004849 0 .84941438-.68037071 1.54135981-1.52305279 1.54135981-.83917502 0-1.52108007-.69194543-1.52108007-1.54135981z" transform="translate(79 168)"/></g></svg>